<?xml version="1.0" encoding="UTF-8"?>
<svg width="20px" height="20px" viewBox="0 0 20 20" version="1.1" xmlns="http://www.w3.org/2000/svg" xmlns:xlink="http://www.w3.org/1999/xlink">
    <!-- Generator: Sketch 62 (91390) - https://sketch.com -->
    <title>Group</title>
    <desc>Created with Sketch.</desc>
    <g id="Page-1" stroke="none" stroke-width="1" fill="none" fill-rule="evenodd">
        <g id="Artboard" transform="translate(-541.000000, -305.000000)" fill="#4285F4" fill-rule="nonzero">
            <g id="Group" transform="translate(541.000000, 305.000000)">
                <path d="M19.99,2 C19.99,0.9 19.1,0 18,0 L2,0 C0.9,0 0,0.9 0,2 L0,14 C0,15.1 0.9,16 2,16 L16,16 L20,20 L19.99,2 Z M15,9 L11,9 L11,13 L9,13 L9,9 L5,9 L5,7 L9,7 L9,3 L11,3 L11,7 L15,7 L15,9 Z" id="Shape"></path>
            </g>
        </g>
    </g>
</svg>