<?xml version="1.0" encoding="UTF-8"?>
<svg width="20px" height="20px" viewBox="0 0 20 20" version="1.1" xmlns="http://www.w3.org/2000/svg" xmlns:xlink="http://www.w3.org/1999/xlink">
    <!-- Generator: Sketch 62 (91390) - https://sketch.com -->
    <title>Group</title>
    <desc>Created with Sketch.</desc>
    <g id="Page-1" stroke="none" stroke-width="1" fill="none" fill-rule="evenodd">
        <g id="Artboard" transform="translate(-249.000000, -307.000000)" fill-rule="nonzero">
            <g id="Group" transform="translate(249.000000, 307.000000)">
                <path d="M8,0 L8,2 C11.3137085,2 14,4.6862915 14,8 L16,8 C16,3.581722 12.418278,0 8,0 Z" id="Path" fill="#34A853"></path>
                <path d="M8,2 L8,0 C3.581722,0 0,3.581722 0,8 L2,8 C2,4.7 4.7,2 8,2 L8,2 Z" id="Path" fill="#EA4335"></path>
                <path d="M2,8 L0,8 C0,12.418278 3.581722,16 8,16 L8,14 C4.7,14 2,11.31 2,8 Z" id="Path" fill="#FBBC04"></path>
                <path d="M20,18.59 L14.31,12.9 C15.4042323,11.500957 15.9991189,9.77613764 16,8 L14,8 C14,11.3137085 11.3137085,14 8,14 L8,16 C9.85,16 11.52,15.36 12.88,14.32 L18.57,20.01 L20,18.59 Z" id="Path" fill="#4285F4"></path>
            </g>
        </g>
    </g>
</svg>